<svg width="24" height="24" viewBox="0 0 24 24" fill="none" xmlns="http://www.w3.org/2000/svg"><rect x="3" y="6" width="18" height="15" rx="2" stroke="#222222"/><path d="M3 10c0-1.9 0-2.8.6-3.4C4.2 6 5 6 7 6h10c1.9 0 2.8 0 3.4.6.6.6.6 1.5.6 3.4H3Z" fill="#222222"/><path d="M7 3v3" stroke="#222222" stroke-linecap="round"/><path d="M17 3v3" stroke="#222222" stroke-linecap="round"/><rect x="7" y="12" width="4" height="2" rx=".5" fill="#222222"/><rect x="7" y="16" width="4" height="2" rx=".5" fill="#222222"/><rect x="13" y="12" width="4" height="2" rx=".5" fill="#222222"/><rect x="13" y="16" width="4" height="2" rx=".5" fill="#222222"/></svg>