<svg width="24" height="24" viewBox="0 0 24 24" fill="none" xmlns="http://www.w3.org/2000/svg"><path d="M17.5 3.5h.2c1.8 0 2.7 0 3.2.6.6.5.6 1.4.6 3.2v.2" stroke="#222222" stroke-linecap="round"/><path d="M17.5 20.5h.2c1.8 0 2.7 0 3.2-.6.6-.5.6-1.4.6-3.2v-.2" stroke="#222222" stroke-linecap="round"/><path d="M6.5 3.5h-.2c-1.8 0-2.7 0-3.2.6-.6.5-.6 1.4-.6 3.2v.2" stroke="#222222" stroke-linecap="round"/><path d="M6.5 20.5h-.2c-1.8 0-2.7 0-3.2-.6-.6-.5-.6-1.4-.6-3.2v-.2" stroke="#222222" stroke-linecap="round"/><path d="M7.2 15.8c.5-.7 1.2-1.3 2-1.7a6.4 6.4 0 0 1 5.6 0c.8.4 1.5 1 2 1.7" stroke="#222222" stroke-linecap="round"/><circle cx="12" cy="9" r="2.5" stroke="#222222" stroke-linecap="round"/></svg>